<svg xmlns="http://www.w3.org/2000/svg" viewBox="0 0 1200 360" role="img" aria-labelledby="title desc">
  <title id="title">Open Manuscript Initiative Logo</title>
  <desc id="desc">Open Manuscript Initiative wordmark with OM manuscript icon for dark backgrounds.</desc>
  <rect width="1200" height="360" fill="#0F172A"/>
  <g transform="translate(52,44) scale(.54)">
    <path d="M146 134 C91 134 54 177 54 239 C54 301 91 344 146 344 C199 344 236 301 236 239 C236 177 199 134 146 134Z" fill="none" stroke="#FFFFFF" stroke-width="28" stroke-linecap="round"/>
    <path d="M272 346V146L368 251L464 146V346" fill="none" stroke="#FFFFFF" stroke-width="28" stroke-linecap="round" stroke-linejoin="round"/>
    <path d="M106 358 C154 348 202 356 256 386 C310 356 358 348 406 358" fill="none" stroke="#FFFFFF" stroke-width="16" stroke-linecap="round"/>
    <path d="M256 386 C224 347 180 322 124 306" fill="none" stroke="#FFFFFF" stroke-width="13" stroke-linecap="round"/>
    <path d="M256 386 C228 332 190 293 147 267" fill="none" stroke="#3E6F64" stroke-width="13" stroke-linecap="round"/>
    <path d="M256 386 C221 370 174 369 102 386" fill="none" stroke="#FFFFFF" stroke-width="10" stroke-linecap="round" opacity=".9"/>
  </g>
  <text x="340" y="143" font-family="Inter, Arial, Helvetica, sans-serif" font-size="56" font-weight="800" letter-spacing="3" fill="#FFFFFF">OPEN MANUSCRIPT</text>
  <text x="344" y="203" font-family="Inter, Arial, Helvetica, sans-serif" font-size="33" font-weight="500" letter-spacing="12" fill="#3E6F64">INITIATIVE</text>
  <line x1="344" y1="233" x2="860" y2="233" stroke="#475569" stroke-width="3"/>
  <text x="344" y="280" font-family="Inter, Arial, Helvetica, sans-serif" font-size="28" font-weight="400" fill="#E2E8F0">Open standards for portable scholarly publishing</text>
</svg>
