<svg xmlns="http://www.w3.org/2000/svg" viewBox="0 0 1200 630" role="img" aria-labelledby="title">
  <title id="title">Open Manuscript Initiative Social Card</title>
  <rect width="1200" height="630" fill="#0F172A"/>
  <circle cx="145" cy="122" r="260" fill="#84BE50" opacity=".13"/>
  <circle cx="1080" cy="515" r="320" fill="#3E6F64" opacity=".2"/>
  
  <g transform="translate(66,88) scale(0.72)">
    <path d="M146 134 C91 134 54 177 54 239 C54 301 91 344 146 344 C199 344 236 301 236 239 C236 177 199 134 146 134Z" fill="none" stroke="#FFFFFF" stroke-width="30" stroke-linecap="round"/>
    <path d="M272 346V146L368 251L464 146V346" fill="none" stroke="#FFFFFF" stroke-width="30" stroke-linecap="round" stroke-linejoin="round"/>
    <path d="M106 358 C154 348 202 356 256 386 C310 356 358 348 406 358" fill="none" stroke="#FFFFFF" stroke-width="17" stroke-linecap="round"/>
    <path d="M256 386 C224 347 180 322 124 306" fill="none" stroke="#FFFFFF" stroke-width="14" stroke-linecap="round"/>
    <path d="M256 386 C228 332 190 293 147 267" fill="none" stroke="#84BE50" stroke-width="14" stroke-linecap="round"/>
  </g>
  <text x="450" y="234" font-family="Inter, Arial, Helvetica, sans-serif" font-size="72" font-weight="800" letter-spacing="2" fill="#FFFFFF">Open Manuscript</text>
  <text x="454" y="310" font-family="Inter, Arial, Helvetica, sans-serif" font-size="42" font-weight="700" letter-spacing="10" fill="#84BE50">INITIATIVE</text>
  <line x1="454" y1="350" x2="950" y2="350" stroke="#84BE50" stroke-opacity=".55" stroke-width="4"/>
  <text x="454" y="420" font-family="Inter, Arial, Helvetica, sans-serif" font-size="34" font-weight="500" fill="#CBD5E1">Open standards for portable scholarly publishing</text>
  <text x="454" y="492" font-family="Inter, Arial, Helvetica, sans-serif" font-size="26" font-weight="400" fill="#CBD5E1" opacity=".88">Write naturally. Structure once. Publish everywhere.</text>
</svg>
